{"title":"Badmaash Company (2010) 1/3 DVD Rip Xvid AC3 Multi-Subs [Tikris]","uid":5634968,"size":1541297141,"categoryP":"video","categoryS":"movies","magnet":"?xt=urn:btih:1677ab65c55c7efd95d6644cbb9bbe486dd0f71f&amp;dn=Badmaash+Company+%282010%29+1%2F3+DVD+Rip+Xvid+AC3+Multi-Subs+%5BTikris%5D&amp;tr=udp%3A%2F%2Ftracker.openbittorrent.com%3A80&amp;tr=udp%3A%2F%2Fopen.demonii.com%3A1337&amp;tr=udp%3A%2F%2Ftracker.coppersurfer.tk%3A6969&amp;tr=udp%3A%2F%2Fexodus.desync.com%3A6969","seeders":0,"leechers":0,"uploader":"luvwithromio","files":-1,"time":1276849112,"description":"Format                           : AVI\nFormat/Info                      : Audio Video Interleave\nFile size                        : 1.43 GiB\nDuration                         : 2h 22mn\nOverall bit rate                 : 1 440 Kbps\n\nVideo\nID                               : 0\nFormat                           : MPEG-4 Visual\nFormat profile                   : Advanced Simple@L5\nFormat settings, BVOP            : Yes\nFormat settings, QPel            : No\nFormat settings, GMC             : No warppoints\nFormat settings, Matrix          : Default (H.263)\nCodec ID                         : XVID\nCodec ID/Hint                    : XviD\nDuration                         : 2h 22mn\nBit rate                         : 1 237 Kbps\nWidth                            : 672 pixels\nHeight                           : 288 pixels\nDisplay aspect ratio             : 2.35:1\nFrame rate                       : 23.976 fps\nResolution                       : 8 bits\nColorimetry                      : 4:2:0\nScan type                        : Progressive\nBits/(Pixel*Frame)               : 0.267\nStream size                      : 1.23 GiB (86%)\nWriting library                  : XviD 1.1.2 (UTC 2006-11-01)\n\nAudio\nID                               : 1\nFormat                           : AC-3\nFormat/Info                      : Audio Coding 3\nFormat_Settings_ModeExtension    : CM (complete main)\nCodec ID                         : 2000\nDuration                         : 2h 21mn\nBit rate mode                    : Constant\nBit rate                         : 192 Kbps\nChannel(s)                       : 6 channels\nChannel positions                : Front: L C R, Side: L R, LFE\nSampling rate                    : 48.0 KHz\nResolution                       : 16 bits\nStream size                      : 195 MiB (13%)\nAlignment                        : Aligned on interleaves\nInterleave, duration             : 32 ms (0.77 video frame)","torrent":{"xt":"urn:btih:1677ab65c55c7efd95d6644cbb9bbe486dd0f71f","amp;dn":"Badmaash+Company+%282010%29+1%2F3+DVD+Rip+Xvid+AC3+Multi-Subs+%5BTikris%5D","amp;tr":["udp%3A%2F%2Ftracker.openbittorrent.com%3A80","udp%3A%2F%2Fopen.demonii.com%3A1337","udp%3A%2F%2Ftracker.coppersurfer.tk%3A6969","udp%3A%2F%2Fexodus.desync.com%3A6969"],"infoHash":"1677ab65c55c7efd95d6644cbb9bbe486dd0f71f","infoHashBuffer":{"type":"Buffer","data":[22,119,171,101,197,92,126,253,149,214,100,76,187,155,190,72,109,208,247,31]},"announce":[],"urlList":[]}}